<?xml version="1.0" encoding="UTF-8"?>
<!DOCTYPE svg PUBLIC "-//W3C//DTD SVG 1.1//EN" "http://www.w3.org/Graphics/SVG/1.1/DTD/svg11.dtd">
<!-- Creator: CorelDRAW X8 -->
<svg xmlns="http://www.w3.org/2000/svg" xml:space="preserve" width="5.68109in" height="2.7736in" version="1.1" style="shape-rendering:geometricPrecision; text-rendering:geometricPrecision; image-rendering:optimizeQuality; fill-rule:evenodd; clip-rule:evenodd"
viewBox="0 0 5681 2774"
 xmlns:xlink="http://www.w3.org/1999/xlink">
 <defs>
  <style type="text/css">
   <![CDATA[
    .fil3 {fill:#143D55}
    .fil0 {fill:#96D900}
    .fil2 {fill:#96D900}
    .fil1 {fill:#143D55;fill-rule:nonzero}
   ]]>
  </style>
 </defs>
 <g id="Layer_x0020_1">
  <metadata id="CorelCorpID_0Corel-Layer"/>
  <g id="_2819494857296">
   <path class="fil0" d="M981 1924l-11 -1224 -258 0 -1 934c-519,-460 -530,-1076 -274,-1302 364,-324 2126,447 2513,834 -461,-521 -2867,-1904 -2947,-663 -20,302 56,520 224,765 200,290 517,546 754,656z"/>
   <path class="fil1" d="M1285 1188c60,-51 126,-77 198,-77 71,0 122,17 151,50 28,33 43,83 43,150l0 602 -278 0 0 -509c0,-28 -12,-41 -36,-41 -30,0 -56,7 -76,23l0 527 -275 0 0 -782 250 0 16 57 7 0z"/>
   <path id="1" class="fil1" d="M2117 1350c-32,0 -54,14 -65,43 -11,29 -16,74 -16,135 0,61 5,105 15,132 11,27 33,41 66,41 33,0 76,-6 130,-18l29 209c-75,25 -142,37 -201,37 -103,0 -181,-35 -234,-104 -53,-70 -79,-167 -79,-292 0,-126 27,-227 81,-305 55,-78 134,-117 237,-117 77,0 147,13 209,40l-29 240c-64,-28 -111,-41 -143,-41z"/>
   <path id="2" class="fil1" d="M2325 1519c0,-143 27,-247 82,-311 55,-64 141,-97 258,-97 117,0 202,32 256,95 53,63 80,167 80,311 0,144 -26,249 -79,314 -52,66 -137,98 -256,98 -119,0 -205,-32 -260,-98 -54,-65 -81,-169 -81,-312zm392 -155c-7,-21 -24,-32 -53,-32 -28,0 -46,11 -53,32 -8,22 -12,68 -12,138l0 39c0,77 4,127 12,150 7,23 25,34 53,34 27,0 45,-11 53,-34 7,-23 11,-70 11,-140l0 -48c0,-71 -3,-117 -11,-139z"/>
   <polygon id="3" class="fil1" points="3756,1131 3590,1913 3205,1913 3037,1131 3324,1131 3394,1632 3415,1632 3490,1131 "/>
   <path id="4" class="fil1" d="M4395 1335l-8 338c0,21 5,35 15,42 10,7 28,10 53,10l-24 198c-63,4 -98,6 -105,6 -80,0 -131,-27 -153,-83l-8 0c-41,56 -103,83 -187,83 -64,0 -113,-20 -147,-62 -35,-41 -52,-98 -52,-170 0,-90 28,-152 84,-187 56,-35 145,-58 266,-69l0 -39c0,-30 -16,-46 -46,-46 -52,0 -134,16 -245,48l-41 -239c140,-36 255,-54 348,-54 92,0 157,18 194,54 37,36 56,93 56,170zm-315 403c40,0 60,-21 60,-63l0 -80c-40,5 -69,13 -86,25 -16,11 -25,31 -25,58 0,40 17,60 51,60z"/>
   <path id="5" class="fil1" d="M4958 1915c-81,9 -151,14 -210,14 -59,0 -105,-15 -139,-46 -33,-31 -49,-85 -49,-161l0 -379 -79 0 0 -202 92 0 14 -150 247 0 0 150 145 0 -11 202 -136 0 0 325c0,23 11,34 33,34 2,0 36,-1 101,-5l-8 218z"/>
   <path id="6" class="fil1" d="M5361 1345c-28,0 -47,9 -55,28 -9,19 -13,49 -13,88l142 0 0 -39c0,-52 -25,-77 -74,-77zm7 -234c112,0 192,27 240,81 49,54 73,131 73,231 0,13 -4,72 -11,177l-373 0c0,81 38,122 113,122 36,0 106,-13 211,-38l23 203c-92,28 -183,42 -275,42 -112,0 -198,-36 -258,-110 -59,-73 -89,-173 -89,-299 0,-273 115,-409 346,-409z"/>
   <path class="fil2" d="M1275 2774c54,0 102,-10 143,-28 41,-18 68,-41 83,-68 14,-27 21,-69 21,-126 0,-79 -13,-135 -39,-171 -25,-35 -88,-81 -187,-136 -35,-19 -56,-35 -63,-49 -8,-13 -12,-33 -12,-60 0,-21 4,-36 10,-46 7,-11 17,-16 31,-16 12,0 21,4 26,12 5,7 8,25 8,53l0 59 208 0 0 -32c0,-63 -7,-109 -20,-135 -14,-27 -41,-49 -81,-66 -41,-18 -90,-27 -148,-27 -53,0 -99,8 -136,24 -38,17 -65,39 -81,67 -17,28 -26,73 -26,135 0,42 6,77 18,105 12,27 27,48 45,64 18,15 55,40 110,75 55,34 90,58 105,73 13,14 20,45 20,92 0,21 -3,38 -11,48 -7,11 -18,17 -33,17 -15,0 -25,-4 -31,-13 -6,-9 -8,-28 -8,-58l0 -97 -208 0 0 52c0,60 6,107 20,139 13,33 40,60 82,81 43,21 94,32 154,32z"/>
   <path class="fil2" d="M1721 2752c36,14 77,22 123,22 49,0 91,-8 128,-23 36,-15 65,-36 86,-64 22,-27 34,-58 38,-91 4,-34 6,-91 6,-171l0 -138c0,-82 -2,-140 -6,-173 -4,-33 -17,-63 -40,-91 -22,-28 -51,-49 -88,-63 -36,-14 -78,-22 -124,-22 -48,0 -90,8 -127,23 -36,15 -65,36 -86,64 -22,27 -35,58 -39,92 -4,33 -6,90 -6,170l0 138c0,82 3,140 7,173 4,33 17,63 40,91 22,29 51,49 88,63zm89 -591l0 374c0,47 2,76 6,86 4,11 13,17 28,17 15,0 24,-6 28,-19 5,-12 7,-42 7,-89l0 -369c0,-37 -3,-61 -7,-71 -4,-10 -13,-16 -27,-16 -11,0 -20,5 -26,13 -6,8 -9,33 -9,74z"/>
   <polygon class="fil2" points="2410,2596 2410,1955 2186,1955 2186,2756 2545,2756 2545,2596 "/>
   <path class="fil2" d="M2724 2750c39,16 85,24 136,24 46,0 87,-7 121,-21 34,-13 61,-32 82,-58 21,-26 33,-52 38,-76 4,-25 6,-68 6,-128l0 -536 -224 0 0 591c0,40 -2,65 -6,76 -4,10 -13,16 -26,16 -13,0 -21,-5 -25,-15 -4,-10 -6,-32 -6,-67l0 -601 -224 0 0 474c0,91 2,150 6,178 3,29 15,55 34,81 20,25 49,46 88,62z"/>
   <path class="fil2" d="M3288 2756l224 0 0 -641 132 0 0 -160 -488 0 0 160 132 0 0 641zm116 -720l-10 0 10 0z"/>
   <polygon class="fil2" points="3695,2756 3919,2756 3919,1955 3695,1955 "/>
   <polygon class="fil2" points="4602,2756 4788,2756 4788,2392 4905,2756 5100,2756 5100,1955 4913,1955 4913,2316 4788,1955 4602,1955 "/>
   <path class="fil2" d="M5234 2333c18,15 55,40 110,75 55,34 90,58 105,73 13,14 20,45 20,92 0,21 -3,38 -11,48 -7,11 -18,17 -33,17 -15,0 -25,-4 -31,-13 -6,-9 -8,-28 -8,-58l0 -97 -208 0 0 52c0,60 6,107 20,139 13,33 40,60 82,81 43,21 94,32 153,32 55,0 103,-10 144,-28 41,-18 68,-41 82,-68 15,-27 22,-69 22,-126 0,-79 -13,-135 -39,-171 -25,-35 -88,-81 -187,-136 -35,-19 -56,-35 -63,-49 -8,-13 -12,-33 -12,-60 0,-21 4,-36 10,-46 7,-11 17,-16 31,-16 12,0 21,4 26,12 5,7 8,25 8,53l0 59 208 0 0 -32c0,-63 -7,-109 -20,-135 -14,-27 -41,-49 -81,-66 -41,-18 -90,-27 -148,-27 -53,0 -99,8 -136,24 -38,17 -65,39 -81,67 -17,28 -26,73 -26,135 0,42 6,77 18,105 12,27 27,48 45,64z"/>
   <path class="fil3" d="M839 677c106,0 192,-86 192,-192 0,-107 -86,-193 -192,-193 -107,0 -193,86 -193,193 0,106 86,192 193,192zm0 -70c-68,0 -122,-55 -122,-122 0,-68 54,-122 122,-122 67,0 122,54 122,122 0,67 -55,122 -122,122z"/>
   <path class="fil0" d="M839 607c67,0 122,-55 122,-122 0,-68 -55,-122 -122,-122 -68,0 -122,54 -122,122 0,67 54,122 122,122zm0 -74c-27,0 -48,-22 -48,-48 0,-27 21,-49 48,-49 26,0 48,22 48,49 0,26 -22,48 -48,48z"/>
   <path class="fil3" d="M839 533c26,0 48,-22 48,-48 0,-27 -22,-49 -48,-49 -27,0 -48,22 -48,49 0,26 21,48 48,48z"/>
   <path class="fil2" d="M4136 2752c36,14 77,22 123,22 49,0 91,-8 128,-23 36,-15 65,-36 86,-64 22,-27 34,-58 38,-91 5,-34 7,-91 7,-171l0 -138c0,-82 -3,-140 -7,-173 -4,-33 -17,-63 -40,-91 -22,-28 -51,-49 -88,-63 -36,-14 -78,-22 -124,-22 -48,0 -90,8 -127,23 -36,15 -65,36 -86,64 -22,27 -34,58 -38,92 -5,33 -7,90 -7,170l0 138c0,82 3,140 7,173 4,33 17,63 40,91 22,29 51,49 88,63zm89 -591l0 374c0,47 2,76 6,86 4,11 13,17 28,17 15,0 24,-6 29,-19 4,-12 6,-42 6,-89l0 -369c0,-37 -2,-61 -7,-71 -4,-10 -13,-16 -26,-16 -12,0 -21,5 -27,13 -6,8 -9,33 -9,74z"/>
  </g>
 </g>
</svg>
